## USER
Video file: DJI_0414.MP4
Color: Normal
Format: H.265
Bitrate: CBR
Camera: Mavic 3 Wide angle, Color: 8 Bit, Format: H.265, Bitrate: CBR
json:
  "streams": [
    {
      "index": 0,
      "codec_name": "hevc",
      "codec_long_name": "H.265 / HEVC (High Efficiency Video Coding)",
      "profile": "Main",
      "codec_type": "video",
      "codec_tag_string": "hvc1",
      "codec_tag": "0x31637668",
      "width": 5120,
      "height": 2700,
      "coded_width": 5120,
      "coded_height": 2704,
      "closed_captions": 0,
      "film_grain": 0,
      "has_b_frames": 1,
      "pix_fmt": "yuv420p",
      "level": 180,
      "color_range": "tv",
      "color_space": "bt709",
      "color_transfer": "bt709",
      "color_primaries": "bt709",
      "chroma_location": "left",
      "refs": 1,
      "id": "0x1",
      "r_frame_rate": "48000/1001",
      "avg_frame_rate": "48000/1001",
      "time_base": "1/48000",
      "start_pts": 0,
      "start_time": "0.000000",
      "duration_ts": 291291,
      "duration": "6.068562",
      "bit_rate": "164793814",
      "nb_frames": "291",
      "extradata_size": 121,
      "tags": {
        "creation_time": "2023-02-19T10:10:42.000000Z",
        "language": "und",
        "handler_name": "VideoHandler",
        "vendor_id": "[0][0][0][0]"
      }
    }
  ]


## ASSISTANT
The provided video file is named DJI_0414.MP4 and has normal color. The video format is H.265 and has a constant bitrate (CBR). The camera used to capture the video is a Mavic 3 with a wide-angle lens, and the color profile is 8-bit. The following JSON provides additional technical details about the video file:

```
"streams": [
    {
      "index": 0,
      "codec_name": "hevc",
      "codec_long_name": "H.265 / HEVC (High Efficiency Video Coding)",
      "profile": "Main",
      "codec_type": "video",
      "codec_tag_string": "hvc1",
      "codec_tag": "0x31637668",
      "width": 5120,
      "height": 2700,
      "coded_width": 5120,
      "coded_height": 2704,
      "closed_captions": 0,
      "film_grain": 0,
      "has_b_frames": 1,
      "pix_fmt": "yuv420p",
      "level": 180,
      "color_range": "tv",
      "color_space": "bt709",
      "color_transfer": "bt709",
      "color_primaries": "bt709",
      "chroma_location": "left",
      "refs": 1,
      "id": "0x1",
      "r_frame_rate": "48000/1001",
      "avg_frame_rate": "48000/1001",
      "time_base": "1/48000",
      "start_pts": 0,
      "start_time": "0.000000",
      "duration_ts": 291291,
      "duration": "6.068562",
      "bit_rate": "164793814",
      "nb_frames": "291",
      "extradata_size": 121,
      "tags": {
        "creation_time": "2023-02-19T10:10:42.000000Z",
        "language": "und",
        "handler_name": "VideoHandler",
        "vendor_id": "[0][0][0][0]"
      }
    }
  ]
```

This JSON provides information about the video stream, including the codec used (HEVC/H.265), its width and height (5120 x 2700), the frame rate (48,000/1001 fps), the duration (6.068562 seconds), and the bitrate (164,793,814 bits per second). Additionally, the color profile of the video is provided, including the color space (BT.709), color transfer function (BT.709), and color primaries (BT.709). The video has one reference frame and one B-frame. Finally, there is metadata about the video, such as the creation time and language, provided in the "tags" field.

## USER
Video file: DJI_0415.MP4
Color: D-Log
Format: H.265
Bitrate: CBR
Camera: Mavic 3 Wide angle, Color: 10 Bit, Format: H.265, Bitrate: CBR
json:
"streams": [
    {
      "index": 0,
      "codec_name": "hevc",
      "codec_long_name": "H.265 / HEVC (High Efficiency Video Coding)",
      "profile": "Main 10",
      "codec_type": "video",
      "codec_tag_string": "hvc1",
      "codec_tag": "0x31637668",
      "width": 5120,
      "height": 2700,
      "coded_width": 5120,
      "coded_height": 2704,
      "closed_captions": 0,
      "film_grain": 0,
      "has_b_frames": 1,
      "pix_fmt": "yuv420p10le",
      "level": 180,
      "color_range": "tv",
      "color_space": "bt709",
      "color_transfer": "bt709",
      "color_primaries": "bt709",
      "chroma_location": "left",
      "refs": 1,
      "id": "0x1",
      "r_frame_rate": "48000/1001",
      "avg_frame_rate": "48000/1001",
      "time_base": "1/48000",
      "start_pts": 0,
      "start_time": "0.000000",
      "duration_ts": 272272,
      "duration": "5.672333",
      "bit_rate": "165909664",
      "nb_frames": "272",
      "extradata_size": 121,
      "tags": {
        "creation_time": "2023-02-19T10:11:50.000000Z",
        "language": "und",
        "handler_name": "VideoHandler",
        "vendor_id": "[0][0][0][0]"
      }
    }
  ]

## ASSISTANT
Based on the provided information, the video file DJI_0415.MP4 was recorded with a Mavic 3 drone using a wide angle lens. The color profile used is D-Log, which is a flat profile used for color grading in post-production. The format used is H.265, a high-efficiency video coding standard that offers high quality video with smaller file sizes compared to older codecs. The bitrate is constant (CBR) at a rate of 165,909,664 bits per second. The video is recorded in 10-bit color depth, which allows for a wider range of colors and greater tonal detail compared to 8-bit video. The video has a resolution of 5120x2700 pixels, with a 16:9 aspect ratio. The video has a duration of 5.672333 seconds and a total of 272 frames.